<svg xmlns="http://www.w3.org/2000/svg" width="240" height="52" viewBox="0 0 240 52">
    <defs>
        <linearGradient id="prefix__a" x1=".007%" x2="99.993%" y1="50.036%" y2="50.036%">
            <stop offset="0%" stop-color="#FF090A"/>
            <stop offset="100%" stop-color="#FF7102"/>
        </linearGradient>
        <linearGradient id="prefix__b" x1="68.671%" x2="26.07%" y1="3.231%" y2="96.541%">
            <stop offset="21%" stop-color="#2A00B5"/>
            <stop offset="100%" stop-color="#00CFFF"/>
        </linearGradient>
        <linearGradient id="prefix__c" x1="50.006%" x2="50.006%" y1="99.996%" y2="0%">
            <stop offset="0%" stop-color="#FF7502"/>
            <stop offset="100%" stop-color="#FFF201"/>
        </linearGradient>
    </defs>
    <g fill="none" fill-rule="evenodd">
        <path fill="#2F3135" fill-rule="nonzero" d="M104.373 25.545c-.146-4.833-2.162-6.952-7.157-6.952-4.735 0-6.562 3.573-6.562 8.06v5.948c.162 4.963 2.27 7.455 5.724 7.455h3.784c.627-.043 1.106-.577 1.081-1.205v-.952c.025-.628-.454-1.162-1.08-1.206h-3.287c-.393.007-.785-.032-1.168-.119-.86-.216-1.773-1.47-1.897-3.99l-.033-4.995h9.498c.643-.032 1.138-.579 1.108-1.222v-.216s-.006-.606-.011-.606zm-10.595-.773c.285-1.793 1.783-3.144 3.595-3.244 2.346 0 3.784 1.19 4.205 3.244h-7.8zM74.205 14.814c-.004-.319.118-.626.34-.854.222-.228.526-.359.844-.363h4.973c4.865 0 6.573 2.784 6.638 6.904.027 2.125-.795 4.18-2.881 5.077 3.07.697 4.405 3.033 4.438 6.39 0 5.634-2.935 8.142-7.979 8.142h-5.194c-.648-.011-1.17-.536-1.179-1.184V14.814zm3.027 1.849v7.85H80c3 0 3.957-2.098 3.957-4.023 0-2.779-1.054-3.849-3.573-3.849h-3.14l-.012.022zm3.417 20.339c3.697 0 4.783-1.925 4.783-4.985 0-3.4-1.816-4.325-4.686-4.325h-3.449v9.299l3.352.01z"/>
        <path fill="#2F3135" d="M206.119 19.642v.832c.004.32-.119.628-.342.857-.223.23-.528.36-.847.365h-4.206v17.15c.005.319-.118.627-.341.856-.223.23-.528.36-.848.365h-1.08c-.654-.026-1.167-.568-1.158-1.222V21.696h-4.21c-.322-.001-.629-.131-.853-.361-.225-.23-.348-.54-.342-.86v-.833c-.006-.32.116-.628.338-.857.222-.23.526-.361.846-.365h11.854c.32.004.624.135.847.364.223.23.346.538.342.858zM139.422 19.869c.004-.32-.119-.629-.342-.858-.223-.229-.528-.36-.848-.364h-11.924c-.32.004-.623.135-.846.365-.222.229-.343.537-.338.857v19.198c-.005.32.116.628.338.857.223.23.527.36.846.365h1.081c.32-.005.625-.136.848-.365.223-.229.346-.537.341-.857v-16.9h7.417v16.9c-.005.32.118.628.341.857.223.23.528.36.848.365h1.08c.32-.005.625-.136.848-.365.224-.229.346-.537.342-.857v-18.1l-.032-1.098zM238.449 40.094c.47-.011.892-.292 1.085-.721.192-.43.121-.931-.183-1.29l-8.908-10.024 6.535-7.569c.337-.348.436-.862.254-1.31-.183-.448-.613-.746-1.097-.76h-1.33c-.32.001-.627.134-.848.367l-4.865 5.828v-4.941c.006-.32-.116-.628-.338-.857-.222-.23-.527-.36-.846-.365h-1.081c-.32.004-.625.136-.848.365-.223.229-.345.537-.341.857v19.198c-.004.32.118.628.341.858.223.229.528.36.848.364h1.081c.32-.004.624-.136.846-.365.222-.23.344-.538.338-.857V31.66l7.232 8.007c.22.27.55.426.898.427h1.227zM191.086 40.094c.47-.013.89-.295 1.081-.723.192-.43.12-.93-.183-1.288l-8.903-10.024 6.535-7.569c.337-.348.436-.863.252-1.312-.184-.449-.616-.747-1.1-.758h-1.33c-.32.002-.624.135-.843.367l-4.865 5.828v-4.941c.004-.32-.119-.628-.342-.857-.223-.23-.528-.36-.847-.365h-1.082c-.319.004-.623.136-.845.365-.222.23-.344.538-.338.857v19.198c-.006.32.116.628.338.857.222.23.526.36.845.365h1.082c.32-.004.624-.135.847-.364.223-.23.346-.538.342-.858V31.66l7.227 8.007c.221.268.55.424.897.427h1.232zM220.692 18.42H219.389c-.412.1-.756.383-.935.767l-1.038 2.082-5.567 11.17V19.642c.004-.32-.119-.629-.342-.858-.223-.229-.528-.36-.848-.364h-1.08c-.664.012-1.193.558-1.184 1.222V38.84c-.006.319.115.627.338.857.222.23.526.36.845.365h1.081c.085.008.17.008.255 0 .438-.09.803-.389.978-.8l1.081-2.087 5.47-11.008V38.84c-.006.319.116.627.338.857.222.23.527.36.846.365h1.081c.32-.005.625-.136.848-.365.223-.23.346-.537.341-.857V19.642c.005-.323-.12-.634-.347-.863-.227-.23-.536-.36-.858-.36z"/>
        <path fill="#2F3135" fill-rule="nonzero" d="M158.416 31.974c0 5.238-2 8.11-7.167 8.11-2.384 0-4.038-.498-4.865-1.73v6.336c0 .684-.543 1.244-1.227 1.265h-.881c-.697-.012-1.253-.585-1.244-1.282v-18.23c0-5.753 2.163-8.067 7.692-8.067 5.53 0 7.692 2.314 7.692 8.067v5.53zm-12.01.07c-.038 3.168 1.859 4.774 4.324 4.774 2.984 0 4.351-1.655 4.351-4.92v-5.455c0-2.985-1.47-4.774-4.351-4.774-2.881 0-4.357 1.735-4.357 4.774l.032 5.6zM115.135 18.42c-2.346 0-3.978.876-4.8 2.07.13-2.535 1.022-3.633 2.66-4.011.41-.09.829-.132 1.248-.125h.94c.318-.001.62-.128.844-.353.223-.225.347-.53.346-.847v-.973c.003-.66-.529-1.2-1.19-1.206h-1.453c-4.865.282-6.784 2.666-6.816 8.061v11.051c0 5.753 2.162 8.067 7.691 8.067 5.53 0 7.19-2.314 7.19-8.067v-5.53c.01-5.24-1.487-8.137-6.66-8.137zm3.32 13.667c0 3.833-1.314 4.774-3.85 4.774-2.88 0-4.324-.94-4.324-4.774l.016-5.596c.038-3.833 1.865-4.773 4.325-4.773 2.573 0 3.848.973 3.848 4.914l-.016 5.455zM174.34 26.032c-.167-4.963-2.064-7.185-6.55-7.456h-1.4c-.312.008-.608.139-.823.365-.214.227-.329.53-.318.841v.968c-.01.311.106.613.32.84.214.225.51.357.82.366h.903c.401-.007.802.033 1.194.118 1.119.218 2.013 1.06 2.298 2.163h-2.346c-5.59 0-7.838 2.206-7.838 7.92 0 5.715 2.249 7.915 7.838 7.915h4.757c.319-.004.623-.135.845-.364.223-.23.344-.538.338-.857l-.037-12.82zm-5.902 10.624c-3.724 0-4.638-1.514-4.638-4.477s.914-4.487 4.638-4.487h2.66c0 2.162.026 6.082.037 8.947l-2.697.017z"/>
        <path fill="url(#prefix__a)" d="M44.935.578L30.27 7.92c-.08.038-.173.038-.254 0L15.33.578c-.122-.063-.27-.05-.38.033-.11.083-.162.222-.134.357l3.665 18.328 6.222-2.109c.16-.053.337.015.421.162L30.13 26h10.016c.17 0 .316-.12.351-.286L45.45.968c.028-.135-.024-.274-.134-.357-.11-.083-.258-.096-.38-.033z"/>
        <path fill="url(#prefix__b)" d="M25.2 35.142c-.128-.113-.16-.3-.076-.449l5.006-8.65-5.006-8.65c-.084-.148-.26-.216-.421-.163L.783 25.28c-.13.044-.223.158-.24.294-.018.136.045.27.16.344l13.692 9.045c.076.049.124.132.13.222l.978 16.382c.008.136.094.256.22.308.127.052.273.026.374-.065L30.13 39.467l-4.93-4.325z"/>
        <path fill="url(#prefix__c)" d="M59.46 25.28l-17.676-5.984-1.287 6.439c-.035.166-.181.285-.351.286H30.13l-5.006 8.65c-.083.15-.052.336.076.45L44.168 51.81c.1.093.245.118.372.066.126-.052.21-.173.217-.31l.984-16.381c.005-.09.053-.173.13-.222l13.691-9.045c.115-.078.174-.215.152-.351-.022-.137-.121-.248-.255-.287z"/>
    </g>
</svg>
